<svg width="56" height="56" viewBox="0 0 56 56" fill="none" xmlns="http://www.w3.org/2000/svg">
<g clip-path="url(#clip0_1054_21535)">
<path fill-rule="evenodd" clip-rule="evenodd" d="M33.2148 3.0361e-06C37.7461 -9.40003e-05 41.449 -0.00017339 44.3725 0.392874C47.4283 0.803716 50.0776 1.69284 52.1924 3.80762C54.3072 5.92239 55.1963 8.57174 55.6071 11.6275C56.0002 14.551 56.0001 18.2539 56 22.7853V33.2148C56.0001 37.7461 56.0002 41.449 55.6071 44.3725C55.1963 47.4283 54.3072 50.0776 52.1924 52.1924C50.0776 54.3072 47.4283 55.1963 44.3725 55.6071C41.449 56.0002 37.7461 56.0001 33.2148 56H22.7853C18.2539 56.0001 14.551 56.0002 11.6275 55.6071C8.57174 55.1963 5.92239 54.3072 3.80762 52.1924C1.69284 50.0776 0.803716 47.4283 0.392874 44.3725C-0.00017339 41.449 -9.40003e-05 37.7461 3.0361e-06 33.2148V22.7852C-9.40003e-05 18.2539 -0.00017339 14.551 0.392874 11.6275C0.803716 8.57174 1.69284 5.92239 3.80762 3.80762C5.92239 1.69284 8.57174 0.803716 11.6275 0.392874C14.551 -0.00017339 18.2539 -9.40003e-05 22.7852 3.0361e-06H33.2148ZM5.92894 5.92894C3.00001 8.85787 3.00001 13.5719 3.00001 23V33C3.00001 42.4281 3.00001 47.1421 5.92894 50.0711C8.85787 53 13.5719 53 23 53H33C42.4281 53 47.1421 53 50.0711 50.0711C53 47.1421 53 42.4281 53 33V23C53 13.5719 53 8.85787 50.0711 5.92894C47.1421 3.00001 42.4281 3.00001 33 3.00001H23C13.5719 3.00001 8.85787 3.00001 5.92894 5.92894Z" fill="url(#paint0_linear_1054_21535)"/>
<path d="M3 23C3 13.5719 3 8.85786 5.92893 5.92893C8.85786 3 13.5719 3 23 3H33C42.4281 3 47.1421 3 50.0711 5.92893C53 8.85786 53 13.5719 53 23V33C53 42.4281 53 47.1421 50.0711 50.0711C47.1421 53 42.4281 53 33 53H23C13.5719 53 8.85786 53 5.92893 50.0711C3 47.1421 3 42.4281 3 33V23Z" fill="white"/>
<path fill-rule="evenodd" clip-rule="evenodd" d="M33 6H23C18.2011 6 14.9038 6.00637 12.427 6.33936C10.0366 6.66076 8.86441 7.23609 8.05025 8.05025C7.23609 8.86441 6.66076 10.0366 6.33936 12.427C6.00637 14.9038 6 18.2011 6 23V33C6 37.7989 6.00637 41.0962 6.33936 43.573C6.66076 45.9634 7.23609 47.1356 8.05025 47.9497C8.86441 48.7639 10.0366 49.3392 12.427 49.6606C14.9038 49.9936 18.2011 50 23 50H33C37.7989 50 41.0962 49.9936 43.573 49.6606C45.9634 49.3392 47.1356 48.7639 47.9497 47.9497C48.7639 47.1356 49.3392 45.9634 49.6606 43.573C49.9936 41.0962 50 37.7989 50 33V23C50 18.2011 49.9936 14.9038 49.6606 12.427C49.3392 10.0366 48.7639 8.86441 47.9497 8.05025C47.1356 7.23609 45.9634 6.66076 43.573 6.33936C41.0962 6.00637 37.7989 6 33 6ZM5.92893 5.92893C3 8.85786 3 13.5719 3 23V33C3 42.4281 3 47.1421 5.92893 50.0711C8.85786 53 13.5719 53 23 53H33C42.4281 53 47.1421 53 50.0711 50.0711C53 47.1421 53 42.4281 53 33V23C53 13.5719 53 8.85786 50.0711 5.92893C47.1421 3 42.4281 3 33 3H23C13.5719 3 8.85786 3 5.92893 5.92893Z" fill="#161616"/>
<path d="M19.25 18.7143C19.25 17.5303 19.7203 16.3948 20.5576 15.5576C21.3948 14.7203 22.5303 14.25 23.7143 14.25H28.1786V23.1786H23.7143C22.5303 23.1786 21.3948 22.7082 20.5576 21.871C19.7203 21.0338 19.25 19.8983 19.25 18.7143ZM28.1786 14.25H32.6429C33.8269 14.25 34.9624 14.7203 35.7996 15.5576C36.6368 16.3948 37.1071 17.5303 37.1071 18.7143C37.1071 19.8983 36.6368 21.0338 35.7996 21.871C34.9624 22.7082 33.8269 23.1786 32.6429 23.1786H28.1786V14.25Z" fill="white"/>
<path fill-rule="evenodd" clip-rule="evenodd" d="M23.7143 15.5C22.8618 15.5 22.0442 15.8386 21.4414 16.4414C20.8386 17.0442 20.5 17.8618 20.5 18.7143C20.5 19.5668 20.8386 20.3843 21.4414 20.9871C22.0442 21.5899 22.8618 21.9286 23.7143 21.9286H26.9286V15.5H23.7143ZM29.4286 15.5V21.9286H32.6429C33.4953 21.9286 34.3129 21.5899 34.9157 20.9871C35.5185 20.3843 35.8571 19.5668 35.8571 18.7143C35.8571 17.8618 35.5185 17.0442 34.9157 16.4414C34.3129 15.8386 33.4953 15.5 32.6429 15.5H29.4286ZM19.6737 14.6737C20.7453 13.602 22.1988 13 23.7143 13H32.6429C34.1584 13 35.6118 13.602 36.6835 14.6737C37.7551 15.7453 38.3571 17.1988 38.3571 18.7143C38.3571 20.2298 37.7551 21.6833 36.6835 22.7549C35.6118 23.8265 34.1584 24.4286 32.6429 24.4286H23.7143C22.1988 24.4286 20.7453 23.8265 19.6737 22.7549C18.602 21.6833 18 20.2298 18 18.7143C18 17.1988 18.602 15.7453 19.6737 14.6737Z" fill="#161616"/>
<path d="M28.1786 27.6401C28.1786 26.4561 28.6489 25.3206 29.4861 24.4833C30.3233 23.6461 31.4589 23.1758 32.6429 23.1758C33.8269 23.1758 34.9624 23.6461 35.7996 24.4833C36.6368 25.3206 37.1071 26.4561 37.1071 27.6401C37.1071 28.8241 36.6368 29.9596 35.7996 30.7968C34.9624 31.634 33.8269 32.1044 32.6429 32.1044C31.4589 32.1044 30.3233 31.634 29.4861 30.7968C28.6489 29.9596 28.1786 28.8241 28.1786 27.6401ZM19.25 36.5686C19.25 35.3846 19.7203 34.2491 20.5576 33.4119C21.3948 32.5747 22.5303 32.1044 23.7143 32.1044H28.1786V36.5686C28.1786 37.7526 27.7082 38.8882 26.871 39.7254C26.0338 40.5626 24.8983 41.0329 23.7143 41.0329C22.5303 41.0329 21.3948 40.5626 20.5576 39.7254C19.7203 38.8882 19.25 37.7526 19.25 36.5686ZM19.25 27.6401C19.25 26.4561 19.7203 25.3206 20.5576 24.4833C21.3948 23.6461 22.5303 23.1758 23.7143 23.1758H28.1786V32.1044H23.7143C22.5303 32.1044 21.3948 31.634 20.5576 30.7968C19.7203 29.9596 19.25 28.8241 19.25 27.6401Z" fill="white"/>
<path fill-rule="evenodd" clip-rule="evenodd" d="M23.7143 24.4258C22.8618 24.4258 22.0442 24.7644 21.4414 25.3672C20.8386 25.97 20.5 26.7876 20.5 27.6401C20.5 28.4925 20.8386 29.3101 21.4414 29.9129C22.0442 30.5157 22.8618 30.8544 23.7143 30.8544H26.9286V24.4258H23.7143ZM29.4048 22.9318C29.2913 22.3582 28.7854 21.9258 28.1786 21.9258H23.7143C22.1988 21.9258 20.7453 22.5278 19.6737 23.5995C18.602 24.6711 18 26.1245 18 27.6401C18 29.1556 18.602 30.609 19.6737 31.6807C19.8243 31.8313 19.9825 31.9727 20.1473 32.1044C19.9825 32.2361 19.8243 32.3774 19.6737 32.528C18.602 33.5997 18 35.0531 18 36.5686C18 38.0842 18.602 39.5376 19.6737 40.6092C20.7453 41.6809 22.1988 42.2829 23.7143 42.2829C25.2298 42.2829 26.6833 41.6809 27.7549 40.6092C28.8265 39.5376 29.4286 38.0842 29.4286 36.5686V32.3647C30.3697 33.0049 31.4883 33.3544 32.6429 33.3544C34.1584 33.3544 35.6118 32.7523 36.6835 31.6807C37.7551 30.609 38.3571 29.1556 38.3571 27.6401C38.3571 26.1245 37.7551 24.6711 36.6835 23.5995C35.6118 22.5278 34.1584 21.9258 32.6429 21.9258C31.4785 21.9258 30.3508 22.2811 29.4048 22.9318ZM26.9286 33.3544H23.7143C22.8618 33.3544 22.0442 33.693 21.4414 34.2958C20.8386 34.8986 20.5 35.7162 20.5 36.5686C20.5 37.4211 20.8386 38.2387 21.4414 38.8415C22.0442 39.4443 22.8618 39.7829 23.7143 39.7829C24.5668 39.7829 25.3843 39.4443 25.9871 38.8415C26.5899 38.2387 26.9286 37.4211 26.9286 36.5686V33.3544ZM29.4286 27.6401C29.4286 28.4925 29.7672 29.3101 30.37 29.9129C30.9728 30.5157 31.7904 30.8544 32.6429 30.8544C33.4953 30.8544 34.3129 30.5157 34.9157 29.9129C35.5185 29.3101 35.8571 28.4925 35.8571 27.6401C35.8571 26.7876 35.5185 25.97 34.9157 25.3672C34.3129 24.7644 33.4953 24.4258 32.6429 24.4258C31.7904 24.4258 30.9728 24.7644 30.37 25.3672C29.7672 25.97 29.4286 26.7876 29.4286 27.6401Z" fill="#161616"/>
</g>
<defs>
<linearGradient id="paint0_linear_1054_21535" x1="0" y1="0" x2="56.7006" y2="6.2012" gradientUnits="userSpaceOnUse">
<stop stop-color="#FF7448"/>
<stop offset="0.567708" stop-color="#FF4848"/>
<stop offset="1" stop-color="#6248FF"/>
</linearGradient>
<clipPath id="clip0_1054_21535">
<rect width="56" height="56" fill="white"/>
</clipPath>
</defs>
</svg>
