<svg width="56" height="56" viewBox="0 0 56 56" fill="none" xmlns="http://www.w3.org/2000/svg">
<g clip-path="url(#clip0_1059_9379)">
<path fill-rule="evenodd" clip-rule="evenodd" d="M33.2148 3.0361e-06C37.7461 -9.40003e-05 41.449 -0.00017339 44.3725 0.392874C47.4283 0.803716 50.0776 1.69284 52.1924 3.80762C54.3072 5.92239 55.1963 8.57174 55.6071 11.6275C56.0002 14.551 56.0001 18.2539 56 22.7853V33.2148C56.0001 37.7461 56.0002 41.449 55.6071 44.3725C55.1963 47.4283 54.3072 50.0776 52.1924 52.1924C50.0776 54.3072 47.4283 55.1963 44.3725 55.6071C41.449 56.0002 37.7461 56.0001 33.2148 56H22.7853C18.2539 56.0001 14.551 56.0002 11.6275 55.6071C8.57174 55.1963 5.92239 54.3072 3.80762 52.1924C1.69284 50.0776 0.803716 47.4283 0.392874 44.3725C-0.00017339 41.449 -9.40003e-05 37.7461 3.0361e-06 33.2148V22.7852C-9.40003e-05 18.2539 -0.00017339 14.551 0.392874 11.6275C0.803716 8.57174 1.69284 5.92239 3.80762 3.80762C5.92239 1.69284 8.57174 0.803716 11.6275 0.392874C14.551 -0.00017339 18.2539 -9.40003e-05 22.7852 3.0361e-06H33.2148ZM5.92894 5.92894C3.00001 8.85787 3.00001 13.5719 3.00001 23V33C3.00001 42.4281 3.00001 47.1421 5.92894 50.0711C8.85787 53 13.5719 53 23 53H33C42.4281 53 47.1421 53 50.0711 50.0711C53 47.1421 53 42.4281 53 33V23C53 13.5719 53 8.85787 50.0711 5.92894C47.1421 3.00001 42.4281 3.00001 33 3.00001H23C13.5719 3.00001 8.85787 3.00001 5.92894 5.92894Z" fill="url(#paint0_linear_1059_9379)"/>
<path d="M3 23C3 13.5719 3 8.85786 5.92893 5.92893C8.85786 3 13.5719 3 23 3H33C42.4281 3 47.1421 3 50.0711 5.92893C53 8.85786 53 13.5719 53 23V33C53 42.4281 53 47.1421 50.0711 50.0711C47.1421 53 42.4281 53 33 53H23C13.5719 53 8.85786 53 5.92893 50.0711C3 47.1421 3 42.4281 3 33V23Z" fill="white"/>
<rect x="14" y="16.5" width="28" height="23" rx="2" fill="#161616"/>
<rect x="17.5" y="20" width="21" height="3.5" rx="1" fill="white"/>
<path d="M38.4999 31.6607C38.5048 31.8593 38.3594 32.046 38.1447 32.1082C37.6993 32.2368 37.2533 32.362 36.8079 32.4899C36.4555 32.5906 36.0975 32.6745 35.7843 32.8794C35.2921 33.2003 34.9509 33.6359 34.7838 34.1994C34.6111 34.7832 34.4461 35.3691 34.2825 35.9551C34.2077 36.2221 34.0238 36.3249 33.8315 36.3312C33.6231 36.3375 33.4518 36.1851 33.3882 35.96C33.2323 35.4111 33.0743 34.8629 32.9198 34.3134C32.6625 33.4024 32.0752 32.8269 31.1648 32.5745C30.6181 32.4228 30.0734 32.2655 29.5281 32.1096C29.312 32.0474 29.1659 31.8663 29.168 31.6663C29.1701 31.4593 29.3148 31.2853 29.54 31.2209C30.0888 31.0643 30.637 30.907 31.1865 30.7525C32.0975 30.4959 32.6737 29.91 32.9268 28.9996C33.0785 28.4529 33.2358 27.9082 33.3917 27.3629C33.4532 27.1468 33.6329 27.0007 33.8336 27C34.0392 27 34.2167 27.1461 34.2804 27.3699C34.4419 27.9355 34.6027 28.5004 34.7635 29.0661C34.9474 29.7121 35.3263 30.1896 35.9283 30.5064C36.345 30.7259 36.7939 30.8336 37.2365 30.9664C37.5378 31.0566 37.842 31.1377 38.144 31.2251C38.3552 31.286 38.4957 31.46 38.5013 31.6607H38.4999Z" fill="white"/>
<path fill-rule="evenodd" clip-rule="evenodd" d="M33 6H23C18.2011 6 14.9038 6.00637 12.427 6.33936C10.0366 6.66076 8.86441 7.23609 8.05025 8.05025C7.23609 8.86441 6.66076 10.0366 6.33936 12.427C6.00637 14.9038 6 18.2011 6 23V33C6 37.7989 6.00637 41.0962 6.33936 43.573C6.66076 45.9634 7.23609 47.1356 8.05025 47.9497C8.86441 48.7639 10.0366 49.3392 12.427 49.6606C14.9038 49.9936 18.2011 50 23 50H33C37.7989 50 41.0962 49.9936 43.573 49.6606C45.9634 49.3392 47.1356 48.7639 47.9497 47.9497C48.7639 47.1356 49.3392 45.9634 49.6606 43.573C49.9936 41.0962 50 37.7989 50 33V23C50 18.2011 49.9936 14.9038 49.6606 12.427C49.3392 10.0366 48.7639 8.86441 47.9497 8.05025C47.1356 7.23609 45.9634 6.66076 43.573 6.33936C41.0962 6.00637 37.7989 6 33 6ZM5.92893 5.92893C3 8.85786 3 13.5719 3 23V33C3 42.4281 3 47.1421 5.92893 50.0711C8.85786 53 13.5719 53 23 53H33C42.4281 53 47.1421 53 50.0711 50.0711C53 47.1421 53 42.4281 53 33V23C53 13.5719 53 8.85786 50.0711 5.92893C47.1421 3 42.4281 3 33 3H23C13.5719 3 8.85786 3 5.92893 5.92893Z" fill="#161616"/>
</g>
<defs>
<linearGradient id="paint0_linear_1059_9379" x1="0" y1="0" x2="56.7006" y2="6.2012" gradientUnits="userSpaceOnUse">
<stop stop-color="#FF7448"/>
<stop offset="0.567708" stop-color="#FF4848"/>
<stop offset="1" stop-color="#6248FF"/>
</linearGradient>
<clipPath id="clip0_1059_9379">
<rect width="56" height="56" fill="white"/>
</clipPath>
</defs>
</svg>
