<svg width="56" height="56" viewBox="0 0 56 56" fill="none" xmlns="http://www.w3.org/2000/svg">
<g clip-path="url(#clip0_1096_22924)">
<path fill-rule="evenodd" clip-rule="evenodd" d="M33.2148 3.0361e-06C37.7461 -9.40003e-05 41.449 -0.00017339 44.3725 0.392874C47.4283 0.803716 50.0776 1.69284 52.1924 3.80762C54.3072 5.92239 55.1963 8.57174 55.6071 11.6275C56.0002 14.551 56.0001 18.2539 56 22.7853V33.2148C56.0001 37.7461 56.0002 41.449 55.6071 44.3725C55.1963 47.4283 54.3072 50.0776 52.1924 52.1924C50.0776 54.3072 47.4283 55.1963 44.3725 55.6071C41.449 56.0002 37.7461 56.0001 33.2148 56H22.7853C18.2539 56.0001 14.551 56.0002 11.6275 55.6071C8.57174 55.1963 5.92239 54.3072 3.80762 52.1924C1.69284 50.0776 0.803716 47.4283 0.392874 44.3725C-0.00017339 41.449 -9.40003e-05 37.7461 3.0361e-06 33.2148V22.7852C-9.40003e-05 18.2539 -0.00017339 14.551 0.392874 11.6275C0.803716 8.57174 1.69284 5.92239 3.80762 3.80762C5.92239 1.69284 8.57174 0.803716 11.6275 0.392874C14.551 -0.00017339 18.2539 -9.40003e-05 22.7852 3.0361e-06H33.2148ZM5.92894 5.92894C3.00001 8.85787 3.00001 13.5719 3.00001 23V33C3.00001 42.4281 3.00001 47.1421 5.92894 50.0711C8.85787 53 13.5719 53 23 53H33C42.4281 53 47.1421 53 50.0711 50.0711C53 47.1421 53 42.4281 53 33V23C53 13.5719 53 8.85787 50.0711 5.92894C47.1421 3.00001 42.4281 3.00001 33 3.00001H23C13.5719 3.00001 8.85787 3.00001 5.92894 5.92894Z" fill="#D8D6D3"/>
<path d="M3 23C3 13.5719 3 8.85786 5.92893 5.92893C8.85786 3 13.5719 3 23 3H33C42.4281 3 47.1421 3 50.0711 5.92893C53 8.85786 53 13.5719 53 23V33C53 42.4281 53 47.1421 50.0711 50.0711C47.1421 53 42.4281 53 33 53H23C13.5719 53 8.85786 53 5.92893 50.0711C3 47.1421 3 42.4281 3 33V23Z" fill="white"/>
<path fill-rule="evenodd" clip-rule="evenodd" d="M41.5 22C41.5 22.8284 40.8284 23.5 40 23.5H38.5V32.5H40C40.8284 32.5 41.5 33.1716 41.5 34V40C41.5 40.8284 40.8284 41.5 40 41.5H34C33.1716 41.5 32.5 40.8284 32.5 40V38.5H23.5V40C23.5 40.8284 22.8284 41.5 22 41.5H16C15.1716 41.5 14.5 40.8284 14.5 40V34C14.5 33.1716 15.1716 32.5 16 32.5H17.5V23.5H16C15.1716 23.5 14.5 22.8284 14.5 22V16C14.5 15.1716 15.1716 14.5 16 14.5H22C22.8284 14.5 23.5 15.1716 23.5 16V17.5H32.5V16C32.5 15.1716 33.1716 14.5 34 14.5H40C40.8284 14.5 41.5 15.1716 41.5 16V22ZM38.5 17.5H35.5V20.5H38.5V17.5ZM17.5 17.5H20.5V20.5H17.5V17.5ZM17.5 38.5H20.5V35.5H17.5V38.5ZM38.5 38.5H35.5V35.5H38.5V38.5ZM34 32.5H35.5V23.5H34C33.1716 23.5 32.5 22.8284 32.5 22V20.5H23.5V22C23.5 22.8284 22.8284 23.5 22 23.5H20.5V32.5H22C22.8284 32.5 23.5 33.1716 23.5 34V35.5H32.5V34C32.5 33.1716 33.1716 32.5 34 32.5Z" fill="#161616"/>
<path fill-rule="evenodd" clip-rule="evenodd" d="M33 6H23C18.2011 6 14.9038 6.00637 12.427 6.33936C10.0366 6.66076 8.86441 7.23609 8.05025 8.05025C7.23609 8.86441 6.66076 10.0366 6.33936 12.427C6.00637 14.9038 6 18.2011 6 23V33C6 37.7989 6.00637 41.0962 6.33936 43.573C6.66076 45.9634 7.23609 47.1356 8.05025 47.9497C8.86441 48.7639 10.0366 49.3392 12.427 49.6606C14.9038 49.9936 18.2011 50 23 50H33C37.7989 50 41.0962 49.9936 43.573 49.6606C45.9634 49.3392 47.1356 48.7639 47.9497 47.9497C48.7639 47.1356 49.3392 45.9634 49.6606 43.573C49.9936 41.0962 50 37.7989 50 33V23C50 18.2011 49.9936 14.9038 49.6606 12.427C49.3392 10.0366 48.7639 8.86441 47.9497 8.05025C47.1356 7.23609 45.9634 6.66076 43.573 6.33936C41.0962 6.00637 37.7989 6 33 6ZM5.92893 5.92893C3 8.85786 3 13.5719 3 23V33C3 42.4281 3 47.1421 5.92893 50.0711C8.85786 53 13.5719 53 23 53H33C42.4281 53 47.1421 53 50.0711 50.0711C53 47.1421 53 42.4281 53 33V23C53 13.5719 53 8.85786 50.0711 5.92893C47.1421 3 42.4281 3 33 3H23C13.5719 3 8.85786 3 5.92893 5.92893Z" fill="#161616"/>
</g>
<defs>
<clipPath id="clip0_1096_22924">
<rect width="56" height="56" fill="white"/>
</clipPath>
</defs>
</svg>
