<svg width="32" height="32" viewBox="0 0 32 32" fill="none" xmlns="http://www.w3.org/2000/svg">
<path d="M10.7983 4.33887L2.46495 9.61664C2.17546 9.79999 2 10.1188 2 10.4615V25.5163C2 26.3044 2.86924 26.7828 3.53505 26.3611L10.7983 21.7611C11.125 21.5542 11.5417 21.5542 11.8684 21.7611L20.1316 26.9945C20.4583 27.2014 20.875 27.2014 21.2017 26.9945L29.5351 21.7167C29.8245 21.5333 30 21.2145 30 20.8719V5.81702C30 5.0289 29.1308 4.55052 28.4649 4.9722L21.2017 9.57225C20.875 9.77915 20.4583 9.77915 20.1316 9.57225L11.8684 4.33887C11.5417 4.13196 11.125 4.13196 10.7983 4.33887Z" fill="white" stroke="url(#paint0_linear_590_15137)" stroke-width="4"/>
<path d="M19.9979 10.9671L20.6667 11.3907L21.3355 10.9671L28.75 6.27127V20.7343L20.6667 25.8537L12.0021 20.3662L11.3333 19.9426L10.6645 20.3662L3.25 25.0621V10.5991L11.3333 5.47961L19.9979 10.9671Z" fill="white" stroke="#161616" stroke-width="2.5"/>
<path d="M12.833 20.5967V6.72553L19.1663 10.7366V24.6078L12.833 20.5967Z" fill="#161616" stroke="#161616" stroke-width="3"/>
<defs>
<linearGradient id="paint0_linear_590_15137" x1="2" y1="4" x2="30.2036" y2="7.70147" gradientUnits="userSpaceOnUse">
<stop stop-color="#FF7448"/>
<stop offset="0.567708" stop-color="#FF4848"/>
<stop offset="1" stop-color="#6248FF"/>
</linearGradient>
</defs>
</svg>
