<svg width="32" height="32" viewBox="0 0 32 32" fill="none" xmlns="http://www.w3.org/2000/svg">
<path d="M7.3671 7.31931C7.55077 7.03143 7.86864 6.85718 8.21013 6.85718H28.8286C29.3809 6.85718 29.8286 7.30489 29.8286 7.85718V24.1429C29.8286 24.6952 29.3809 25.1429 28.8286 25.1429H8.21013C7.86864 25.1429 7.55077 24.9686 7.3671 24.6808L2.17179 16.5379C1.96249 16.2099 1.96249 15.7902 2.17179 15.4622L7.3671 7.31931Z" fill="white" stroke="url(#paint0_linear_590_15156)" stroke-width="3.5"/>
<path d="M8.7583 8.10718H27.8286C28.2428 8.10718 28.5786 8.44296 28.5786 8.85718V23.1429C28.5786 23.5571 28.2428 23.8929 27.8286 23.8929H8.7583C8.50219 23.8929 8.26379 23.7622 8.12603 23.5463L3.56874 16.4034C3.41177 16.1574 3.41177 15.8427 3.56874 15.5966L8.12603 8.45378C8.26379 8.23787 8.50219 8.10718 8.7583 8.10718Z" fill="white" stroke="#161616" stroke-width="2.5"/>
<path d="M11.4285 13.0714C11.4285 12.7953 11.6523 12.5714 11.9285 12.5714H22.357C22.6332 12.5714 22.857 12.7953 22.857 13.0714V14.3571C22.857 14.6333 22.6332 14.8571 22.357 14.8571H11.9285C11.6523 14.8571 11.4285 14.6333 11.4285 14.3571V13.0714Z" fill="#161616"/>
<path d="M11.4285 17.6428C11.4285 17.3667 11.6523 17.1428 11.9285 17.1428H17.7856C18.0618 17.1428 18.2856 17.3667 18.2856 17.6428V18.9285C18.2856 19.2047 18.0618 19.4285 17.7856 19.4285H11.9285C11.6523 19.4285 11.4285 19.2047 11.4285 18.9285V17.6428Z" fill="#161616"/>
<defs>
<linearGradient id="paint0_linear_590_15156" x1="1.82861" y1="6.85718" x2="29.7354" y2="11.5307" gradientUnits="userSpaceOnUse">
<stop stop-color="#FF7448"/>
<stop offset="0.567708" stop-color="#FF4848"/>
<stop offset="1" stop-color="#6248FF"/>
</linearGradient>
</defs>
</svg>
