<svg width="32" height="32" viewBox="0 0 32 32" fill="none" xmlns="http://www.w3.org/2000/svg">
<path fill-rule="evenodd" clip-rule="evenodd" d="M15 4C15.2825 4.00006 15.5573 4.09212 15.7828 4.26226C16.0083 4.4324 16.1722 4.67135 16.2498 4.94297L17.6591 9.87621C17.9626 10.9386 18.5318 11.9062 19.3131 12.6875C20.0945 13.4688 22.1245 14.3414 22.1245 14.3414L27.0579 15.7507C27.3294 15.8284 27.5681 15.9925 27.7381 16.2179C27.9081 16.4434 28 16.7181 28 17.0005C28 17.2828 27.9081 17.5575 27.7381 17.783C27.5681 18.0085 27.3294 18.1725 27.0579 18.2502L22.1245 19.6595C21.062 19.9629 20.0945 20.5322 19.3131 21.3135C18.5318 22.0947 17.9626 23.0623 17.6591 24.1247L16.2498 29.058C16.1721 29.3294 16.008 29.5681 15.7825 29.7381C15.5571 29.9081 15.2824 30 15 30C14.7176 30 14.4429 29.9081 14.2174 29.7381C13.992 29.5681 13.8279 29.3294 13.7502 29.058L12.3409 24.1247C12.0374 23.0623 11.4682 22.0947 10.6869 21.3135C9.90554 20.5322 8.93795 19.9629 7.87549 19.6595L2.94206 18.2502C2.67061 18.1725 2.43186 18.0085 2.26189 17.783C2.09193 17.5575 2 17.2828 2 17.0005C2 16.7181 2.09193 16.4434 2.26189 16.2179C2.43186 15.9925 2.67061 15.8284 2.94206 15.7507L7.87549 14.3414C8.93795 14.038 9.90554 13.4688 10.6869 12.6875C11.4682 11.9062 12.0374 10.9386 12.3409 9.87621L13.7502 4.94297C13.8278 4.67135 13.9917 4.4324 14.2172 4.26226C14.4427 4.09212 14.7175 4.00006 15 4Z" fill="white" stroke="url(#paint0_linear_590_15163)" stroke-width="3.5"/>
<path d="M15.0479 5.28631L15.0479 5.28632L16.4572 10.2195C16.4572 10.2195 16.4572 10.2195 16.4572 10.2196C16.819 11.4863 17.4977 12.6399 18.4293 13.5714C18.9708 14.1128 19.8332 14.6023 20.4335 14.9156C20.7575 15.0847 21.0537 15.2268 21.2688 15.3267C21.3767 15.3767 21.4651 15.4166 21.5274 15.4444C21.5364 15.4484 21.5449 15.4522 21.5528 15.4557C21.5723 15.4643 21.5884 15.4714 21.6009 15.4768L21.6216 15.4858L21.6277 15.4885L21.6296 15.4893L21.6303 15.4896L21.6306 15.4897C21.6307 15.4898 21.6308 15.4898 22.1245 14.3414L21.6308 15.4898L21.7043 15.5214L21.7812 15.5434L26.7137 16.9524C26.7138 16.9524 26.7138 16.9524 26.7139 16.9524C26.7243 16.9554 26.7334 16.9617 26.7399 16.9704C26.7465 16.979 26.75 16.9896 26.75 17.0005C26.75 17.0113 26.7465 17.0219 26.7399 17.0306C26.7334 17.0392 26.7243 17.0455 26.7139 17.0485C26.7138 17.0485 26.7138 17.0486 26.7137 17.0486L21.7812 18.4575C21.7812 18.4576 21.7812 18.4576 21.7812 18.4576C20.5144 18.8194 19.3608 19.498 18.4293 20.4296C17.4977 21.3611 16.819 22.5147 16.4572 23.7814C16.4572 23.7814 16.4572 23.7814 16.4572 23.7814L15.0482 28.7137C15.0481 28.7138 15.0481 28.7139 15.0481 28.714C15.045 28.7243 15.0388 28.7334 15.0302 28.7399C15.0215 28.7464 15.0109 28.75 15 28.75C14.9891 28.75 14.9785 28.7464 14.9698 28.7399C14.9612 28.7334 14.9549 28.7242 14.9519 28.7138C14.9519 28.7138 14.9519 28.7138 14.9518 28.7137L13.5428 23.7814C13.5428 23.7814 13.5428 23.7814 13.5428 23.7814C13.181 22.5147 12.5023 21.3611 11.5707 20.4296C10.6392 19.498 9.48552 18.8193 8.21875 18.4575L3.28629 17.0486C3.27582 17.0456 3.26662 17.0393 3.26008 17.0306C3.25353 17.0219 3.25 17.0113 3.25 17.0005C3.25 16.9896 3.25353 16.979 3.26008 16.9704C3.26662 16.9617 3.27582 16.9554 3.28629 16.9524L8.21875 15.5434C9.48552 15.1816 10.6392 14.5029 11.5707 13.5714C12.5023 12.6399 13.181 11.4863 13.5428 10.2196C13.5428 10.2195 13.5428 10.2195 13.5428 10.2195L14.9521 5.28632L14.9521 5.28631C14.9551 5.27587 14.9614 5.26667 14.9701 5.26011C14.9788 5.25355 14.9894 5.25 15.0003 5.25L15 4L14.9997 5.25C15.0106 5.25 15.0212 5.25355 15.0299 5.26011C15.0386 5.26667 15.0449 5.27587 15.0479 5.28631Z" fill="white" stroke="#161616" stroke-width="2.5"/>
<path d="M31.0003 5.91558V4.8103C31.0003 4.40871 30.6747 4.08315 30.2731 4.08315H27.9172V1.72716C27.9172 1.32556 27.5916 1 27.19 1H26.0847C25.6831 1 25.3576 1.32556 25.3576 1.72716V4.08315H23.0016C22.6 4.08315 22.2744 4.40871 22.2744 4.8103V5.91558C22.2744 6.31718 22.6 6.64274 23.0016 6.64274H25.3576V8.99873C25.3576 9.40033 25.6831 9.72588 26.0847 9.72588H27.19C27.5916 9.72588 27.9172 9.40033 27.9172 8.99873V6.64274H30.2731C30.6747 6.64274 31.0003 6.31718 31.0003 5.91558V5.91558Z" fill="#161616"/>
<defs>
<linearGradient id="paint0_linear_590_15163" x1="2" y1="4" x2="28.3253" y2="6.87913" gradientUnits="userSpaceOnUse">
<stop stop-color="#FF7448"/>
<stop offset="0.567708" stop-color="#FF4848"/>
<stop offset="1" stop-color="#6248FF"/>
</linearGradient>
</defs>
</svg>
