<svg width="32" height="32" viewBox="0 0 32 32" fill="none" xmlns="http://www.w3.org/2000/svg">
<g clip-path="url(#clip0_590_15142)">
<path d="M17.3572 2.49737C17.7122 2.07429 18.343 2.01911 18.766 2.37411L25.9887 8.43468C26.4118 8.78968 26.467 9.42044 26.112 9.84351L11.1643 27.6575C10.9964 27.8576 10.7569 27.984 10.497 28.0098L3.69457 28.6851C3.13099 28.741 2.63347 28.3182 2.59778 27.753L2.17284 21.0228C2.15665 20.7664 2.23971 20.5137 2.40481 20.317L17.3572 2.49737Z" fill="white" stroke="url(#paint0_linear_590_15142)" stroke-width="4"/>
<path d="M18.7286 3.97445L24.4192 8.74945C24.7365 9.0157 24.7779 9.48877 24.5117 9.80607L10.4686 26.5419C10.3427 26.692 10.1631 26.7868 9.96815 26.8062L3.82896 27.4156L3.44557 21.3433C3.43343 21.151 3.49572 20.9615 3.61954 20.8139L17.672 4.0669C17.9382 3.74959 18.4113 3.7082 18.7286 3.97445Z" fill="white" stroke="#161616" stroke-width="2.5"/>
<path d="M16.6475 5.12102C17.0025 4.69795 17.6333 4.64277 18.0563 4.99777L23.5281 9.58911C23.9511 9.94411 24.0063 10.5749 23.6513 10.9979L20.1812 15.1335C19.8262 15.5566 19.1954 15.6117 18.7724 15.2567L13.3006 10.6654C12.8775 10.3104 12.8224 9.67965 13.1774 9.25657L16.6475 5.12102Z" fill="#161616"/>
<path d="M18.2856 25.6428C18.2856 25.3667 18.5095 25.1428 18.7856 25.1428H29.2142C29.4904 25.1428 29.7142 25.3667 29.7142 25.6428V26.9285C29.7142 27.2047 29.4904 27.4285 29.2142 27.4285H18.7856C18.5095 27.4285 18.2856 27.2047 18.2856 26.9285V25.6428Z" fill="#161616"/>
<path d="M22.8569 19.9286C22.8569 19.6524 23.0808 19.4286 23.3569 19.4286H31.4998C31.7759 19.4286 31.9998 19.6524 31.9998 19.9286V21.2143C31.9998 21.4904 31.7759 21.7143 31.4998 21.7143H23.3569C23.0808 21.7143 22.8569 21.4904 22.8569 21.2143V19.9286Z" fill="#161616"/>
<path d="M28.5713 14.2142C28.5713 13.9381 28.7951 13.7142 29.0713 13.7142H31.4999C31.776 13.7142 31.9999 13.9381 31.9999 14.2142V15.4999C31.9999 15.7761 31.776 15.9999 31.4999 15.9999H29.0713C28.7951 15.9999 28.5713 15.7761 28.5713 15.4999V14.2142Z" fill="#161616"/>
</g>
<defs>
<linearGradient id="paint0_linear_590_15142" x1="18" y1="1.73132" x2="26.6483" y2="9.61177" gradientUnits="userSpaceOnUse">
<stop stop-color="#FF7448"/>
<stop offset="0.567708" stop-color="#FF4848"/>
<stop offset="1" stop-color="#6248FF"/>
</linearGradient>
<clipPath id="clip0_590_15142">
<rect width="32" height="32" fill="white"/>
</clipPath>
</defs>
</svg>
