<svg width="32" height="32" viewBox="0 0 32 32" fill="none" xmlns="http://www.w3.org/2000/svg">
<path d="M4 8.8C4 7.11984 4 6.27976 4.32698 5.63803C4.6146 5.07354 5.07354 4.6146 5.63803 4.32698C6.27976 4 7.11984 4 8.8 4H15.2C16.8802 4 17.7202 4 18.362 4.32698C18.9265 4.6146 19.3854 5.07354 19.673 5.63803C20 6.27976 20 7.11984 20 8.8V23.2C20 24.8802 20 25.7202 19.673 26.362C19.3854 26.9265 18.9265 27.3854 18.362 27.673C17.7202 28 16.8802 28 15.2 28H8.8C7.11984 28 6.27976 28 5.63803 27.673C5.07354 27.3854 4.6146 26.9265 4.32698 26.362C4 25.7202 4 24.8802 4 23.2V8.8Z" fill="white" stroke="url(#paint0_linear_590_15164)" stroke-width="3.5"/>
<path d="M8.8 5.25H15.2C16.0607 5.25 16.6311 5.25097 17.0686 5.28672C17.4916 5.32128 17.6792 5.382 17.7945 5.44074C18.1238 5.60852 18.3915 5.87623 18.5593 6.20552C18.618 6.3208 18.6787 6.50844 18.7133 6.9314C18.749 7.36894 18.75 7.9393 18.75 8.8V23.2C18.75 24.0607 18.749 24.6311 18.7133 25.0686C18.6787 25.4916 18.618 25.6792 18.5593 25.7945C18.3915 26.1238 18.1238 26.3915 17.7945 26.5593C17.6792 26.618 17.4916 26.6787 17.0686 26.7133C16.6311 26.749 16.0607 26.75 15.2 26.75H8.8C7.9393 26.75 7.36894 26.749 6.9314 26.7133C6.50844 26.6787 6.3208 26.618 6.20552 26.5593C5.87623 26.3915 5.60852 26.1238 5.44074 25.7945C5.382 25.6792 5.32128 25.4916 5.28672 25.0686C5.25097 24.6311 5.25 24.0607 5.25 23.2V8.8C5.25 7.9393 5.25097 7.36894 5.28672 6.9314C5.32128 6.50844 5.382 6.3208 5.44074 6.20552C5.60852 5.87623 5.87623 5.60852 6.20552 5.44074C6.3208 5.382 6.50844 5.32128 6.9314 5.28672C7.36894 5.25097 7.9393 5.25 8.8 5.25Z" fill="white" stroke="#161616" stroke-width="2.5"/>
<path d="M30.5 16H11.5V22M30.5 16L24.5 10M30.5 16L24.5 22" stroke="#161616" stroke-width="2" stroke-linejoin="round"/>
<defs>
<linearGradient id="paint0_linear_590_15164" x1="4" y1="4" x2="20.3073" y2="5.18899" gradientUnits="userSpaceOnUse">
<stop stop-color="#FF7448"/>
<stop offset="0.567708" stop-color="#FF4848"/>
<stop offset="1" stop-color="#6248FF"/>
</linearGradient>
</defs>
</svg>
