<svg width="32" height="32" viewBox="0 0 32 32" fill="none" xmlns="http://www.w3.org/2000/svg">
<g clip-path="url(#clip0_590_15165)">
<path d="M2 6.8C2 5.11984 2 4.27976 2.32698 3.63803C2.6146 3.07354 3.07354 2.6146 3.63803 2.32698C4.27976 2 5.11984 2 6.8 2H25.2C26.8802 2 27.7202 2 28.362 2.32698C28.9265 2.6146 29.3854 3.07354 29.673 3.63803C30 4.27976 30 5.11984 30 6.8V25.2C30 26.8802 30 27.7202 29.673 28.362C29.3854 28.9265 28.9265 29.3854 28.362 29.673C27.7202 30 26.8802 30 25.2 30H6.8C5.11984 30 4.27976 30 3.63803 29.673C3.07354 29.3854 2.6146 28.9265 2.32698 28.362C2 27.7202 2 26.8802 2 25.2V6.8Z" fill="white" stroke="url(#paint0_linear_590_15165)" stroke-width="3.5"/>
<path d="M6.8 3.25H25.2C26.0607 3.25 26.6311 3.25097 27.0686 3.28672C27.4916 3.32128 27.6792 3.382 27.7945 3.44074C28.1238 3.60852 28.3915 3.87623 28.5593 4.20552C28.618 4.3208 28.6787 4.50844 28.7133 4.9314C28.749 5.36894 28.75 5.9393 28.75 6.8V25.2C28.75 26.0607 28.749 26.6311 28.7133 27.0686C28.6787 27.4916 28.618 27.6792 28.5593 27.7945C28.3915 28.1238 28.1238 28.3915 27.7945 28.5593C27.6792 28.618 27.4916 28.6787 27.0686 28.7133C26.6311 28.749 26.0607 28.75 25.2 28.75H6.8C5.93929 28.75 5.36894 28.749 4.9314 28.7133C4.50844 28.6787 4.3208 28.618 4.20552 28.5593C3.87623 28.3915 3.60852 28.1238 3.44074 27.7945C3.382 27.6792 3.32128 27.4916 3.28672 27.0686C3.25097 26.6311 3.25 26.0607 3.25 25.2V6.8C3.25 5.93929 3.25097 5.36894 3.28672 4.9314C3.32128 4.50844 3.382 4.3208 3.44074 4.20552C3.60852 3.87623 3.87623 3.60852 4.20552 3.44074C4.3208 3.382 4.50844 3.32128 4.9314 3.28672C5.36894 3.25097 5.9393 3.25 6.8 3.25Z" fill="white" stroke="#161616" stroke-width="2.5"/>
<path fill-rule="evenodd" clip-rule="evenodd" d="M21.7895 7C21.881 7.00002 21.97 7.02984 22.043 7.08494C22.116 7.14005 22.1691 7.21744 22.1943 7.30541L22.6507 8.90323C22.749 9.24733 22.9334 9.56071 23.1864 9.81376C23.4395 10.0668 24.097 10.3495 24.097 10.3495L25.6949 10.8059C25.7828 10.8311 25.8601 10.8842 25.9152 10.9572C25.9702 11.0303 26 11.1192 26 11.2107C26 11.3021 25.9702 11.3911 25.9152 11.4641C25.8601 11.5372 25.7828 11.5903 25.6949 11.6155L24.097 12.0719C23.7529 12.1702 23.4395 12.3545 23.1864 12.6076C22.9334 12.8606 22.749 13.174 22.6507 13.5181L22.1943 15.1159C22.1691 15.2039 22.116 15.2812 22.0429 15.3362C21.9699 15.3913 21.8809 15.4211 21.7895 15.4211C21.698 15.4211 21.609 15.3913 21.536 15.3362C21.463 15.2812 21.4099 15.2039 21.3847 15.1159L20.9282 13.5181C20.8299 13.174 20.6456 12.8606 20.3925 12.6076C20.1394 12.3545 19.8261 12.1702 19.4819 12.0719L17.8841 11.6155C17.7962 11.5903 17.7188 11.5372 17.6638 11.4641C17.6087 11.3911 17.5789 11.3021 17.5789 11.2107C17.5789 11.1192 17.6087 11.0303 17.6638 10.9572C17.7188 10.8842 17.7962 10.8311 17.8841 10.8059L19.4819 10.3495C19.8261 10.2512 20.1394 10.0668 20.3925 9.81376C20.6456 9.56071 20.8299 9.24733 20.9282 8.90323L21.3847 7.30541C21.4098 7.21744 21.4629 7.14005 21.5359 7.08494C21.609 7.02984 21.698 7.00002 21.7895 7Z" fill="#161616"/>
<path d="M19.1073 19.2752H17.6812C17.5963 19.2752 17.5623 19.2412 17.5623 19.1733C17.5623 19.1224 17.5623 19.0714 17.5793 19.0035C17.9019 17.6283 19.1073 16.5077 21.1108 16.5077C23.233 16.5077 24.5913 17.6792 24.5913 19.6657V23.4687C24.5913 24.2837 24.6592 24.6063 24.9139 25.0307C24.9818 25.1496 24.9478 25.2005 24.795 25.2005H23.0972C22.9784 25.2005 22.9274 25.1496 22.9274 25.0307V24.4025C22.3332 24.9968 21.5861 25.3703 20.2788 25.3703C18.6829 25.3703 17.2058 24.4195 17.2058 22.6029C17.2058 20.7183 18.7678 19.7336 20.6693 19.7336C21.6031 19.7336 22.1804 19.8694 22.9274 20.0901V19.7845C22.9274 18.7149 22.3162 18.0358 21.1108 18.0358C20.2279 18.0358 19.6337 18.3923 19.345 19.1224C19.2941 19.2582 19.2262 19.2752 19.1073 19.2752ZM22.9274 21.6181C22.1634 21.3974 21.6201 21.2616 20.7542 21.2616C19.7525 21.2616 18.9715 21.6691 18.9715 22.535C18.9715 23.299 19.4978 23.7744 20.5165 23.7744C21.8069 23.7744 22.9274 23.0103 22.9274 21.6181Z" fill="#161616"/>
<path d="M14.5909 25.0307L13.4873 21.9237H8.95419L7.86759 25.0307C7.81666 25.1495 7.79968 25.2005 7.66386 25.2005H6.18676C6.06791 25.2005 6 25.1495 6 25.0307C6 24.9967 6 24.9628 6.01698 24.9288L10.1936 13.4856C10.2445 13.3667 10.2445 13.3158 10.3634 13.3158H12.0951C12.214 13.3158 12.214 13.3667 12.2649 13.4856L16.4415 24.9288C16.4585 24.9628 16.4585 24.9967 16.4585 25.0307C16.4585 25.1495 16.3906 25.2005 16.2718 25.2005H14.7947C14.6588 25.2005 14.6419 25.1495 14.5909 25.0307ZM11.2293 15.523L9.5654 20.2259H12.8931L11.2293 15.523Z" fill="#161616"/>
</g>
<defs>
<linearGradient id="paint0_linear_590_15165" x1="2" y1="2" x2="30.3503" y2="5.1006" gradientUnits="userSpaceOnUse">
<stop stop-color="#FF7448"/>
<stop offset="0.567708" stop-color="#FF4848"/>
<stop offset="1" stop-color="#6248FF"/>
</linearGradient>
<clipPath id="clip0_590_15165">
<rect width="32" height="32" fill="white"/>
</clipPath>
</defs>
</svg>
